<svg width="1000" height="1000" viewBox="0 0 1000 1000" fill="none" xmlns="http://www.w3.org/2000/svg">
<circle cx="500" cy="500" r="480" fill="url(#paint0_radial_475_1845)"/>
<path d="M674.373 400H656.857V350C656.857 336.739 651.348 324.021 641.543 314.645C631.738 305.268 618.438 300 604.571 300H395.429C381.562 300 368.262 305.268 358.457 314.645C348.652 324.021 343.143 336.739 343.143 350V400H325.366C323.147 400 321.019 400.843 319.45 402.343C317.881 403.843 317 405.878 317 408V467C317 471.425 320.738 475 325.366 475H343.143V625C343.143 638.75 343.143 650 369.286 650V687.5C369.286 690.815 370.663 693.995 373.114 696.339C375.566 698.683 378.89 700 382.357 700H434.643C438.11 700 441.434 698.683 443.886 696.339C446.337 693.995 447.714 690.815 447.714 687.5V650H552.286V687.5C552.286 690.815 553.663 693.995 556.114 696.339C558.566 698.683 561.89 700 565.357 700H617.643C621.11 700 624.434 698.683 626.886 696.339C629.337 693.995 630.714 690.815 630.714 687.5V650C656.857 650 656.857 638.75 656.857 625V475H674.373C676.661 475 678.855 474.131 680.473 472.584C682.091 471.036 683 468.938 683 466.75C683 464.562 682.091 462.464 680.473 460.916C678.855 459.369 676.661 458.5 674.373 458.5C672.085 458.5 669.89 459.369 668.273 460.916C666.655 462.464 665.746 464.562 665.746 466.75C665.746 468.938 666.655 471.036 668.273 472.584C669.89 474.131 672.085 475 674.373 475C676.661 475 678.855 474.131 680.473 472.584C682.091 471.036 683 468.938 683 466.75V408.25C683 406.062 682.091 403.964 680.473 402.416C678.855 400.869 676.661 400 674.373 400ZM447.714 325H552.286V350H447.714V325ZM395.429 600C388.495 600 381.846 597.366 376.943 592.678C372.04 587.989 369.286 581.63 369.286 575C369.286 568.37 372.04 562.011 376.943 557.322C381.846 552.634 388.495 550 395.429 550C402.362 550 409.012 552.634 413.914 557.322C418.817 562.011 421.571 568.37 421.571 575C421.571 581.63 418.817 587.989 413.914 592.678C409.012 597.366 402.362 600 395.429 600ZM369.286 500V375H630.714V500H369.286ZM604.571 600C597.638 600 590.988 597.366 586.086 592.678C581.183 587.989 578.429 581.63 578.429 575C578.429 568.37 581.183 562.011 586.086 557.322C590.988 552.634 597.638 550 604.571 550C611.505 550 618.154 552.634 623.057 557.322C627.96 562.011 630.714 568.37 630.714 575C630.714 581.63 627.96 587.989 623.057 592.678C618.154 597.366 611.505 600 604.571 600Z" fill="#0C9B8A"/>
<defs>
<radialGradient id="paint0_radial_475_1845" cx="0" cy="0" r="1" gradientUnits="userSpaceOnUse" gradientTransform="translate(500 500) rotate(90) scale(480)">
<stop offset="0.8" stop-color="white"/>
<stop offset="1" stop-color="#0C9B8A"/>
</radialGradient>
</defs>
</svg>
