<svg width="134" height="206" viewBox="0 0 134 206" fill="none" xmlns="http://www.w3.org/2000/svg">
<g clip-path="url(#clip0_479_1055)">
<path d="M123 56.25C123 81.8555 88.7227 127.441 73.6934 146.25C70.0898 150.732 63.4102 150.732 59.8066 146.25C44.7773 127.441 10.5 81.8555 10.5 56.25C10.5 25.1953 35.6953 0 66.75 0C97.8047 0 123 25.1953 123 56.25Z" fill="white"/>
</g>
<path d="M88.3438 46.5H86.25V40.25C86.25 38.5924 85.5915 37.0027 84.4194 35.8306C83.2473 34.6585 81.6576 34 80 34H55C53.3424 34 51.7527 34.6585 50.5806 35.8306C49.4085 37.0027 48.75 38.5924 48.75 40.25V46.5H46.625C46.3598 46.5 46.1054 46.6054 45.9179 46.7929C45.7304 46.9804 45.625 47.2348 45.625 47.5V54.875C45.625 55.4281 46.0719 55.875 46.625 55.875H48.75V74.625C48.75 76.3438 48.75 77.75 51.875 77.75V82.4375C51.875 82.8519 52.0396 83.2493 52.3326 83.5424C52.6257 83.8354 53.0231 84 53.4375 84H59.6875C60.1019 84 60.4993 83.8354 60.7924 83.5424C61.0854 83.2493 61.25 82.8519 61.25 82.4375V77.75H73.75V82.4375C73.75 82.8519 73.9146 83.2493 74.2076 83.5424C74.5007 83.8354 74.8981 84 75.3125 84H81.5625C81.9769 84 82.3743 83.8354 82.6674 83.5424C82.9604 83.2493 83.125 82.8519 83.125 82.4375V77.75C86.25 77.75 86.25 76.3438 86.25 74.625V55.875H88.3438C88.6173 55.875 88.8796 55.7663 89.073 55.573C89.2663 55.3796 89.375 55.1173 89.375 54.8438C89.375 54.5702 89.2663 54.3079 89.073 54.1145C88.8796 53.9211 88.6173 53.8125 88.3438 53.8125C88.0702 53.8125 87.8079 53.9211 87.6145 54.1145C87.4212 54.3079 87.3125 54.5702 87.3125 54.8438C87.3125 55.1173 87.4212 55.3796 87.6145 55.573C87.8079 55.7663 88.0702 55.875 88.3438 55.875C88.6173 55.875 88.8796 55.7663 89.073 55.573C89.2663 55.3796 89.375 55.1173 89.375 54.8438V47.5312C89.375 47.2577 89.2663 46.9954 89.073 46.802C88.8796 46.6086 88.6173 46.5 88.3438 46.5ZM61.25 37.125H73.75V40.25H61.25V37.125ZM55 71.5C54.1712 71.5 53.3763 71.1708 52.7903 70.5847C52.2042 69.9987 51.875 69.2038 51.875 68.375C51.875 67.5462 52.2042 66.7513 52.7903 66.1653C53.3763 65.5792 54.1712 65.25 55 65.25C55.8288 65.25 56.6237 65.5792 57.2097 66.1653C57.7958 66.7513 58.125 67.5462 58.125 68.375C58.125 69.2038 57.7958 69.9987 57.2097 70.5847C56.6237 71.1708 55.8288 71.5 55 71.5ZM51.875 59V43.375H83.125V59H51.875ZM80 71.5C79.1712 71.5 78.3763 71.1708 77.7903 70.5847C77.2042 69.9987 76.875 69.2038 76.875 68.375C76.875 67.5462 77.2042 66.7513 77.7903 66.1653C78.3763 65.5792 79.1712 65.25 80 65.25C80.8288 65.25 81.6237 65.5792 82.2097 66.1653C82.7958 66.7513 83.125 67.5462 83.125 68.375C83.125 69.2038 82.7958 69.9987 82.2097 70.5847C81.6237 71.1708 80.8288 71.5 80 71.5Z" fill="#0C9B8A"/>
<path d="M2.42 193V165H13.82C15.1267 165.48 16.2867 166.32 17.3 167.52C18.3133 168.72 18.82 170.173 18.82 171.88C18.82 174.893 17.8333 177 15.86 178.2V178.36C18.3133 179.72 19.54 181.853 19.54 184.76C19.54 188.093 17.8467 190.84 14.46 193H2.42ZM7.86 176.56H11.82C12.9933 175.84 13.58 174.747 13.58 173.28C13.58 171.813 13.0333 170.653 11.94 169.8H7.86V176.56ZM7.86 188.36H11.98C12.46 188.013 12.8867 187.467 13.26 186.72C13.66 185.973 13.86 185.227 13.86 184.48C13.86 183.733 13.7 183.053 13.38 182.44C13.06 181.827 12.66 181.373 12.18 181.08H7.86V188.36ZM29.3391 193H25.1391C23.9657 191.507 23.1657 190.013 22.7391 188.52C22.3124 187.027 22.0991 185.16 22.0991 182.92V172.56H27.4191V183.32C27.4191 185.747 27.8991 187.573 28.8591 188.8H32.5791V172.56H37.8991V193H33.6991L32.9791 191.56C31.9657 192.52 30.7524 193 29.3391 193ZM43.3216 172.56H52.1616V176.76H45.9216L49.7216 182.4C51.4282 184.827 52.3749 186.493 52.5616 187.4C52.6682 187.827 52.7216 188.267 52.7216 188.72C52.7216 190.613 52.0149 192.04 50.6016 193H40.4016V188.8H47.7216L43.4416 182.52C43.2549 182.227 42.9616 181.813 42.5616 181.28C42.1882 180.747 41.8949 180.32 41.6816 180C41.4682 179.653 41.3216 179.4 41.2416 179.24C41.1616 179.08 41.0549 178.88 40.9216 178.64C40.7882 178.373 40.6949 178.147 40.6416 177.96C40.5349 177.453 40.4816 177.04 40.4816 176.72C40.4816 174.773 41.4282 173.387 43.3216 172.56ZM60.0259 169.8H53.9859V165H71.5059V169.8H65.4659V193H60.0259V169.8ZM72.0647 193V172.56H75.8647L76.8647 174.72C77.9314 173.28 79.278 172.56 80.9047 172.56H82.4647V177.92H77.3847V193H72.0647ZM93.6178 183.76H89.3378C88.7778 184.453 88.4978 185.32 88.4978 186.36C88.4978 187.4 88.7911 188.213 89.3778 188.8H93.6178V183.76ZM85.0178 172.56H94.9378C96.5378 173.52 97.5911 174.627 98.0978 175.88C98.6045 177.107 98.8578 178.787 98.8578 180.92V186.92C98.8578 189.133 98.9111 191.16 99.0178 193H94.4578L93.7378 191.56C92.6978 192.52 91.2311 193 89.3378 193H86.8178C84.5511 191.507 83.4178 189.36 83.4178 186.56C83.4178 183.733 84.5778 181.507 86.8978 179.88H90.6578C91.6978 179.88 92.6711 180.2 93.5778 180.84V178.84C93.5778 177.8 93.1245 177.107 92.2178 176.76H85.0178V172.56ZM107.258 182.6C107.258 183.72 107.431 184.867 107.778 186.04C108.125 187.187 108.605 188.107 109.218 188.8H115.218V193H106.458C103.311 190.493 101.738 187.027 101.738 182.6C101.738 178.173 103.418 174.827 106.778 172.56H115.218V176.76H109.218C107.911 178.12 107.258 180.067 107.258 182.6ZM117.884 193V165H123.204V179.84H123.764L127.524 172.56H132.724L128.004 181.48L132.764 193H127.484L123.804 184.04H123.204V193H117.884Z" fill="white"/>
<defs>
<clipPath id="clip0_479_1055">
<rect width="112.5" height="150" fill="white" transform="translate(10.5)"/>
</clipPath>
</defs>
</svg>
