<svg width="172" height="55" viewBox="0 0 172 55" fill="none" xmlns="http://www.w3.org/2000/svg">
<path d="M2.07234 42.5L2.07234 14.5L13.4723 14.5C14.779 14.98 15.939 15.82 16.9523 17.02C17.9657 18.22 18.4723 19.6733 18.4723 21.38C18.4723 24.3933 17.4857 26.5 15.5123 27.7V27.86C17.9657 29.22 19.1923 31.3533 19.1923 34.26C19.1923 37.5933 17.499 40.34 14.1123 42.5H2.07234ZM7.51234 26.06H11.4723C12.6457 25.34 13.2323 24.2467 13.2323 22.78C13.2323 21.3133 12.6857 20.1533 11.5923 19.3H7.51234L7.51234 26.06ZM7.51234 37.86H11.6323C12.1123 37.5133 12.539 36.9667 12.9123 36.22C13.3123 35.4733 13.5123 34.7267 13.5123 33.98C13.5123 33.2333 13.3523 32.5533 13.0323 31.94C12.7123 31.3267 12.3123 30.8733 11.8323 30.58H7.51234L7.51234 37.86ZM28.9914 42.5H24.7914C23.6181 41.0067 22.8181 39.5133 22.3914 38.02C21.9647 36.5267 21.7514 34.66 21.7514 32.42L21.7514 22.06L27.0714 22.06L27.0714 32.82C27.0714 35.2467 27.5514 37.0733 28.5114 38.3H32.2314V22.06L37.5514 22.06V42.5H33.3514L32.6314 41.06C31.6181 42.02 30.4047 42.5 28.9914 42.5ZM42.9739 22.06H51.8139V26.26H45.5739L49.3739 31.9C51.0806 34.3267 52.0272 35.9933 52.2139 36.9C52.3206 37.3267 52.3739 37.7667 52.3739 38.22C52.3739 40.1133 51.6672 41.54 50.2539 42.5L40.0539 42.5V38.3L47.3739 38.3L43.0939 32.02C42.9072 31.7267 42.6139 31.3133 42.2139 30.78C41.8406 30.2467 41.5472 29.82 41.3339 29.5C41.1206 29.1533 40.9739 28.9 40.8939 28.74C40.8139 28.58 40.7072 28.38 40.5739 28.14C40.4406 27.8733 40.3472 27.6467 40.2939 27.46C40.1872 26.9533 40.1339 26.54 40.1339 26.22C40.1339 24.2733 41.0806 22.8867 42.9739 22.06ZM59.6783 19.3H53.6383V14.5L71.1583 14.5V19.3H65.1183V42.5H59.6783V19.3ZM71.717 42.5V22.06H75.517L76.517 24.22C77.5837 22.78 78.9304 22.06 80.557 22.06H82.117V27.42L77.037 27.42V42.5L71.717 42.5ZM93.2702 33.26H88.9902C88.4302 33.9533 88.1502 34.82 88.1502 35.86C88.1502 36.9 88.4435 37.7133 89.0302 38.3H93.2702V33.26ZM84.6702 22.06L94.5902 22.06C96.1902 23.02 97.2435 24.1267 97.7502 25.38C98.2568 26.6067 98.5102 28.2867 98.5102 30.42V36.42C98.5102 38.6333 98.5635 40.66 98.6702 42.5H94.1102L93.3902 41.06C92.3502 42.02 90.8835 42.5 88.9902 42.5H86.4702C84.2035 41.0067 83.0702 38.86 83.0702 36.06C83.0702 33.2333 84.2302 31.0067 86.5502 29.38H90.3102C91.3502 29.38 92.3235 29.7 93.2302 30.34V28.34C93.2302 27.3 92.7768 26.6067 91.8702 26.26H84.6702V22.06ZM106.91 32.1C106.91 33.22 107.084 34.3667 107.43 35.54C107.777 36.6867 108.257 37.6067 108.87 38.3H114.87V42.5H106.11C102.964 39.9933 101.39 36.5267 101.39 32.1C101.39 27.6733 103.07 24.3267 106.43 22.06H114.87V26.26H108.87C107.564 27.62 106.91 29.5667 106.91 32.1ZM117.536 42.5V14.5H122.856V29.34H123.416L127.176 22.06H132.376L127.656 30.98L132.416 42.5H127.136L123.456 33.54H122.856V42.5H117.536Z" fill="#0C9B8A"/>
<path d="M170 23.1591C170 29.1492 161.773 39.8135 158.166 44.2135C157.302 45.2621 155.698 45.2621 154.834 44.2135C151.227 39.8135 143 29.1492 143 23.1591C143 15.8942 149.047 10 156.5 10C163.953 10 170 15.8942 170 23.1591Z" fill="#0C9B8A"/>
<path d="M164.123 21.7061H163.357V19.7061C163.357 19.1756 163.116 18.6669 162.688 18.2918C162.259 17.9168 161.678 17.7061 161.071 17.7061H151.929C151.322 17.7061 150.741 17.9168 150.312 18.2918C149.884 18.6669 149.643 19.1756 149.643 19.7061V21.7061H148.866C148.769 21.7061 148.676 21.7398 148.607 21.7998C148.539 21.8598 148.5 21.9412 148.5 22.0261V24.3861C148.5 24.5631 148.663 24.7061 148.866 24.7061H149.643V30.7061C149.643 31.2561 149.643 31.7061 150.786 31.7061V33.2061C150.786 33.3387 150.846 33.4658 150.953 33.5596C151.06 33.6534 151.206 33.7061 151.357 33.7061H153.643C153.794 33.7061 153.94 33.6534 154.047 33.5596C154.154 33.4658 154.214 33.3387 154.214 33.2061V31.7061H158.786V33.2061C158.786 33.3387 158.846 33.4658 158.953 33.5596C159.06 33.6534 159.206 33.7061 159.357 33.7061H161.643C161.794 33.7061 161.94 33.6534 162.047 33.5596C162.154 33.4658 162.214 33.3387 162.214 33.2061V31.7061C163.357 31.7061 163.357 31.2561 163.357 30.7061V24.7061H164.123C164.223 24.7061 164.319 24.6713 164.39 24.6094C164.46 24.5475 164.5 24.4636 164.5 24.3761C164.5 24.2885 164.46 24.2046 164.39 24.1427C164.319 24.0808 164.223 24.0461 164.123 24.0461C164.023 24.0461 163.927 24.0808 163.856 24.1427C163.785 24.2046 163.746 24.2885 163.746 24.3761C163.746 24.4636 163.785 24.5475 163.856 24.6094C163.927 24.6713 164.023 24.7061 164.123 24.7061C164.223 24.7061 164.319 24.6713 164.39 24.6094C164.46 24.5475 164.5 24.4636 164.5 24.3761V22.0361C164.5 21.9485 164.46 21.8646 164.39 21.8027C164.319 21.7408 164.223 21.7061 164.123 21.7061ZM154.214 18.7061H158.786V19.7061H154.214V18.7061ZM151.929 29.7061C151.625 29.7061 151.335 29.6007 151.12 29.4132C150.906 29.2256 150.786 28.9713 150.786 28.7061C150.786 28.4408 150.906 28.1865 151.12 27.9989C151.335 27.8114 151.625 27.7061 151.929 27.7061C152.232 27.7061 152.522 27.8114 152.737 27.9989C152.951 28.1865 153.071 28.4408 153.071 28.7061C153.071 28.9713 152.951 29.2256 152.737 29.4132C152.522 29.6007 152.232 29.7061 151.929 29.7061ZM150.786 25.7061V20.7061H162.214V25.7061H150.786ZM161.071 29.7061C160.768 29.7061 160.478 29.6007 160.263 29.4132C160.049 29.2256 159.929 28.9713 159.929 28.7061C159.929 28.4408 160.049 28.1865 160.263 27.9989C160.478 27.8114 160.768 27.7061 161.071 27.7061C161.375 27.7061 161.665 27.8114 161.88 27.9989C162.094 28.1865 162.214 28.4408 162.214 28.7061C162.214 28.9713 162.094 29.2256 161.88 29.4132C161.665 29.6007 161.375 29.7061 161.071 29.7061Z" fill="white"/>
</svg>
