<svg width="172" height="56" viewBox="0 0 172 56" fill="none" xmlns="http://www.w3.org/2000/svg">
<path d="M2.07234 43L2.07234 15L13.4723 15C14.779 15.48 15.939 16.32 16.9523 17.52C17.9657 18.72 18.4723 20.1733 18.4723 21.88C18.4723 24.8933 17.4857 27 15.5123 28.2V28.36C17.9657 29.72 19.1923 31.8533 19.1923 34.76C19.1923 38.0933 17.499 40.84 14.1123 43H2.07234ZM7.51234 26.56H11.4723C12.6457 25.84 13.2323 24.7467 13.2323 23.28C13.2323 21.8133 12.6857 20.6533 11.5923 19.8H7.51234L7.51234 26.56ZM7.51234 38.36H11.6323C12.1123 38.0133 12.539 37.4667 12.9123 36.72C13.3123 35.9733 13.5123 35.2267 13.5123 34.48C13.5123 33.7333 13.3523 33.0533 13.0323 32.44C12.7123 31.8267 12.3123 31.3733 11.8323 31.08H7.51234L7.51234 38.36ZM28.9914 43H24.7914C23.6181 41.5067 22.8181 40.0133 22.3914 38.52C21.9647 37.0267 21.7514 35.16 21.7514 32.92L21.7514 22.56L27.0714 22.56L27.0714 33.32C27.0714 35.7467 27.5514 37.5733 28.5114 38.8H32.2314V22.56L37.5514 22.56V43H33.3514L32.6314 41.56C31.6181 42.52 30.4047 43 28.9914 43ZM42.9739 22.56H51.8139V26.76H45.5739L49.3739 32.4C51.0806 34.8267 52.0272 36.4933 52.2139 37.4C52.3206 37.8267 52.3739 38.2667 52.3739 38.72C52.3739 40.6133 51.6672 42.04 50.2539 43L40.0539 43V38.8L47.3739 38.8L43.0939 32.52C42.9072 32.2267 42.6139 31.8133 42.2139 31.28C41.8406 30.7467 41.5472 30.32 41.3339 30C41.1206 29.6533 40.9739 29.4 40.8939 29.24C40.8139 29.08 40.7072 28.88 40.5739 28.64C40.4406 28.3733 40.3472 28.1467 40.2939 27.96C40.1872 27.4533 40.1339 27.04 40.1339 26.72C40.1339 24.7733 41.0806 23.3867 42.9739 22.56ZM59.6783 19.8H53.6383V15L71.1583 15V19.8H65.1183V43H59.6783V19.8ZM71.717 43V22.56H75.517L76.517 24.72C77.5837 23.28 78.9304 22.56 80.557 22.56H82.117V27.92L77.037 27.92V43L71.717 43ZM93.2702 33.76H88.9902C88.4302 34.4533 88.1502 35.32 88.1502 36.36C88.1502 37.4 88.4435 38.2133 89.0302 38.8H93.2702V33.76ZM84.6702 22.56L94.5902 22.56C96.1902 23.52 97.2435 24.6267 97.7502 25.88C98.2568 27.1067 98.5102 28.7867 98.5102 30.92V36.92C98.5102 39.1333 98.5635 41.16 98.6702 43H94.1102L93.3902 41.56C92.3502 42.52 90.8835 43 88.9902 43H86.4702C84.2035 41.5067 83.0702 39.36 83.0702 36.56C83.0702 33.7333 84.2302 31.5067 86.5502 29.88H90.3102C91.3502 29.88 92.3235 30.2 93.2302 30.84V28.84C93.2302 27.8 92.7768 27.1067 91.8702 26.76H84.6702V22.56ZM106.91 32.6C106.91 33.72 107.084 34.8667 107.43 36.04C107.777 37.1867 108.257 38.1067 108.87 38.8H114.87V43H106.11C102.964 40.4933 101.39 37.0267 101.39 32.6C101.39 28.1733 103.07 24.8267 106.43 22.56H114.87V26.76H108.87C107.564 28.12 106.91 30.0667 106.91 32.6ZM117.536 43V15H122.856V29.84H123.416L127.176 22.56H132.376L127.656 31.48L132.416 43H127.136L123.456 34.04H122.856V43H117.536Z" fill="white"/>
<path d="M170 23.6591C170 29.6492 161.773 40.3135 158.166 44.7135C157.302 45.7621 155.698 45.7621 154.834 44.7135C151.227 40.3135 143 29.6492 143 23.6591C143 16.3942 149.047 10.5 156.5 10.5C163.953 10.5 170 16.3942 170 23.6591Z" fill="white"/>
<path d="M164.123 22.2061H163.357V20.2061C163.357 19.6756 163.116 19.1669 162.688 18.7918C162.259 18.4168 161.678 18.2061 161.071 18.2061H151.929C151.322 18.2061 150.741 18.4168 150.312 18.7918C149.884 19.1669 149.643 19.6756 149.643 20.2061V22.2061H148.866C148.769 22.2061 148.676 22.2398 148.607 22.2998C148.539 22.3598 148.5 22.4412 148.5 22.5261V24.8861C148.5 25.0631 148.663 25.2061 148.866 25.2061H149.643V31.2061C149.643 31.7561 149.643 32.2061 150.786 32.2061V33.7061C150.786 33.8387 150.846 33.9658 150.953 34.0596C151.06 34.1534 151.206 34.2061 151.357 34.2061H153.643C153.794 34.2061 153.94 34.1534 154.047 34.0596C154.154 33.9658 154.214 33.8387 154.214 33.7061V32.2061H158.786V33.7061C158.786 33.8387 158.846 33.9658 158.953 34.0596C159.06 34.1534 159.206 34.2061 159.357 34.2061H161.643C161.794 34.2061 161.94 34.1534 162.047 34.0596C162.154 33.9658 162.214 33.8387 162.214 33.7061V32.2061C163.357 32.2061 163.357 31.7561 163.357 31.2061V25.2061H164.123C164.223 25.2061 164.319 25.1713 164.39 25.1094C164.46 25.0475 164.5 24.9636 164.5 24.8761C164.5 24.7885 164.46 24.7046 164.39 24.6427C164.319 24.5808 164.223 24.5461 164.123 24.5461C164.023 24.5461 163.927 24.5808 163.856 24.6427C163.785 24.7046 163.746 24.7885 163.746 24.8761C163.746 24.9636 163.785 25.0475 163.856 25.1094C163.927 25.1713 164.023 25.2061 164.123 25.2061C164.223 25.2061 164.319 25.1713 164.39 25.1094C164.46 25.0475 164.5 24.9636 164.5 24.8761V22.5361C164.5 22.4485 164.46 22.3646 164.39 22.3027C164.319 22.2408 164.223 22.2061 164.123 22.2061ZM154.214 19.2061H158.786V20.2061H154.214V19.2061ZM151.929 30.2061C151.625 30.2061 151.335 30.1007 151.12 29.9132C150.906 29.7256 150.786 29.4713 150.786 29.2061C150.786 28.9408 150.906 28.6865 151.12 28.4989C151.335 28.3114 151.625 28.2061 151.929 28.2061C152.232 28.2061 152.522 28.3114 152.737 28.4989C152.951 28.6865 153.071 28.9408 153.071 29.2061C153.071 29.4713 152.951 29.7256 152.737 29.9132C152.522 30.1007 152.232 30.2061 151.929 30.2061ZM150.786 26.2061V21.2061H162.214V26.2061H150.786ZM161.071 30.2061C160.768 30.2061 160.478 30.1007 160.263 29.9132C160.049 29.7256 159.929 29.4713 159.929 29.2061C159.929 28.9408 160.049 28.6865 160.263 28.4989C160.478 28.3114 160.768 28.2061 161.071 28.2061C161.375 28.2061 161.665 28.3114 161.88 28.4989C162.094 28.6865 162.214 28.9408 162.214 29.2061C162.214 29.4713 162.094 29.7256 161.88 29.9132C161.665 30.1007 161.375 30.2061 161.071 30.2061Z" fill="#0C9B8A"/>
</svg>
